# xmcd
# 
# Track frame offsets:
#     150
#     15243
#     36325
#     48777
# 
# Disc length: 887
# 
# Revision: 2
# Processed by: cddbd v1.5.2PL0 Copyright (c) Steve Scherf et al.
# Submitted via: fre:ac v1.0.17
# 
DISCID=22037504
DTITLE=ＤＪみそしる と ＭＣごはん - おりおりのおりょうり～X'mas～
DYEAR=2013
DGENRE=Hip-Hop
TTITLE0=はじめに　（１１月・１２月）
TTITLE1=ショートケーキ
TTITLE2=ローストチキン　～ Thanks to "Sunday People"～
TTITLE3=おわりに　（１２月２６日）
EXTD=
EXTT0=
EXTT1=
EXTT2=
EXTT3=
PLAYORDER=
